<?xml version="1.0" encoding="UTF-8" standalone="no"?>
<!-- Created with Inkscape (http://www.inkscape.org/) -->

<svg
   xmlns:dc="http://purl.org/dc/elements/1.1/"
   xmlns:cc="http://creativecommons.org/ns#"
   xmlns:rdf="http://www.w3.org/1999/02/22-rdf-syntax-ns#"
   xmlns:svg="http://www.w3.org/2000/svg"
   xmlns="http://www.w3.org/2000/svg"
   xmlns:xlink="http://www.w3.org/1999/xlink"
   xmlns:sodipodi="http://sodipodi.sourceforge.net/DTD/sodipodi-0.dtd"
   xmlns:inkscape="http://www.inkscape.org/namespaces/inkscape"
   width="40"
   height="20"
   id="svg3281"
   version="1.1"
   inkscape:version="0.48.5 r10040"
   sodipodi:docname="New document 11">
  <defs
     id="defs3283">
    <radialGradient
       fx="0"
       fy="0"
       cx="0"
       cy="0"
       r="1"
       gradientUnits="userSpaceOnUse"
       gradientTransform="matrix(461.69357,0,0,-461.69357,6993.6753,7204.1353)"
       spreadMethod="pad"
       id="radialGradient2861">
      <stop
         style="stop-opacity:1;stop-color:#faef76"
         offset="0"
         id="stop2863" />
      <stop
         style="stop-opacity:1;stop-color:#0078b3"
         offset="1"
         id="stop2865" />
    </radialGradient>
    <radialGradient
       fx="0"
       fy="0"
       cx="0"
       cy="0"
       r="1"
       gradientUnits="userSpaceOnUse"
       gradientTransform="matrix(46.981038,0,0,46.981038,-0.32153266,1041.5116)"
       spreadMethod="pad"
       id="radialGradient2901">
      <stop
         style="stop-opacity:1;stop-color:#faef76"
         offset="0"
         id="stop2903" />
      <stop
         style="stop-opacity:1;stop-color:#0078b3"
         offset="1"
         id="stop2905" />
    </radialGradient>
    <radialGradient
       fx="0"
       fy="0"
       cx="0"
       cy="0"
       r="1"
       gradientUnits="userSpaceOnUse"
       gradientTransform="matrix(46.981289,0,0,46.981289,-0.32158002,1041.5116)"
       spreadMethod="pad"
       id="radialGradient2881">
      <stop
         style="stop-opacity:1;stop-color:#faef76"
         offset="0"
         id="stop2883" />
      <stop
         style="stop-opacity:1;stop-color:#0078b3"
         offset="1"
         id="stop2885" />
    </radialGradient>
    <radialGradient
       r="1"
       fy="0"
       fx="0"
       cy="0"
       cx="0"
       spreadMethod="pad"
       gradientTransform="matrix(46.98089,0,0,46.98089,-0.32143176,1041.5116)"
       gradientUnits="userSpaceOnUse"
       id="radialGradient3248"
       xlink:href="#radialGradient2861"
       inkscape:collect="always" />
  </defs>
  <sodipodi:namedview
     id="base"
     pagecolor="#ffffff"
     bordercolor="#666666"
     borderopacity="1.0"
     inkscape:pageopacity="0.0"
     inkscape:pageshadow="2"
     inkscape:zoom="3.959798"
     inkscape:cx="14.674225"
     inkscape:cy="-5.6862627"
     inkscape:document-units="px"
     inkscape:current-layer="layer1"
     showgrid="false"
     inkscape:window-width="492"
     inkscape:window-height="416"
     inkscape:window-x="766"
     inkscape:window-y="244"
     inkscape:window-maximized="0" />
  <metadata
     id="metadata3286">
    <rdf:RDF>
      <cc:Work
         rdf:about="">
        <dc:format>image/svg+xml</dc:format>
        <dc:type
           rdf:resource="http://purl.org/dc/dcmitype/StillImage" />
        <dc:title></dc:title>
      </cc:Work>
    </rdf:RDF>
  </metadata>
  <g
     inkscape:label="Layer 1"
     inkscape:groupmode="layer"
     id="layer1"
     transform="translate(0,-1032.3622)">
    <path
       inkscape:connector-curvature="0"
       d="m 15.728377,1037.7235 2.35702,0 0,7.242 -2.35702,0 0,-7.242 z"
       style="fill:url(#radialGradient3248);stroke:none"
       id="path2867" />
    <path
       inkscape:connector-curvature="0"
       d="m 6.6767246,1033.5411 c 4.5342234,-0.023 13.7098154,0.4343 18.6483244,4.1824 l 0,0 -2.219745,0 c -0.922634,0 -1.47101,0.4479 -1.644914,1.3441 l 0,0 c -0.174006,0.8961 0.321048,1.879 1.484541,2.9488 l 0,0 c 0.705385,0.555 0.585108,0.8194 -0.361136,0.7926 l 0,0 -3.991854,0 0,2.1565 6.319053,0 c 1.042918,-0.1739 1.574601,-0.7091 1.594544,-1.6049 l 0,0 c 0.02018,-0.8962 -0.511228,-1.8188 -1.594544,-2.7685 l 0,0 c -0.604949,-0.5016 -0.478158,-0.739 0.380883,-0.7122 l 0,0 2.104243,0 c 0.02209,0.033 0.0453,0.065 0.06655,0.1 l 0,0 0,0 c 0,0 1.473963,1.8853 1.190056,5.0302 l 0,0 c -0.205956,2.283 -0.998442,4.5531 -1.418092,5.6268 l 0,0 c -0.02494,0.076 -0.05036,0.1509 -0.07571,0.2267 l 0,0 3.079496,-1.6309 c 0,0 0.852428,-1.3839 0.982981,-4.2633 l 0,0 0.0228,-0.4469 c 0.02429,-0.4546 0.0481,-1.0121 0,-1.6324 l 0,0 0,-0.3134 2.267162,0 c 0.601591,-0.09 1.083417,-0.289 1.444453,-0.5964 l 0,0 c 0.361136,-0.3077 0.58185,-0.5784 0.661932,-0.8124 l 0,0 c 0.07988,-0.2343 0.133505,-0.485 0.160372,-0.7523 l 0,0 c 0.02643,-0.2674 -0.03345,-0.669 -0.180517,-1.2037 l 0,0 c -0.160374,-0.4411 -0.431052,-0.7859 -0.812335,-1.0329 l 0,0 c -0.380984,-0.2475 -0.862804,-0.3983 -1.444553,-0.4517 l 0,0 -4.894652,0 c -2.858776,-2.3013 -8.551408,-4.2007 -19.8089713,-4.2008 l 0,0 c -0.6358817,0 -1.2888607,0.011 -1.9607708,0.018 m 24.5678801,5.988 1.820752,0 c 0.08008,0 0.179398,0.045 0.298253,0.1327 l 0,0 c 0.118749,0.088 0.186417,0.2717 0.203003,0.5491 l 0,0 c -0.0067,0.2908 -0.06706,0.4725 -0.180214,0.5442 l 0,0 c -0.113669,0.072 -0.219184,0.1076 -0.316261,0.1076 l 0,0 -1.825533,0 0,-1.3338 z"
       style="fill:url(#radialGradient2881);stroke:none"
       id="path2887" />
    <path
       inkscape:connector-curvature="0"
       d="m 5.6926246,1037.7235 0,7.242 2.6179229,0 0,-1.9612 c 0.036017,0.2001 0.069598,0.3685 0.069598,0.3685 l 0,0 0.00238,0 c 0.160676,0.8608 0.5685215,1.3064 0.8796995,1.4396 l 0,0 c 0.00418,0.011 0.00916,0.011 0.013514,0.011 l 0,0 c 0.038994,0.016 0.080595,0.031 0.1209923,0.045 l 0,0 c 0.3577796,0.1155 0.7170827,0.103 0.7170827,0.103 l 0,0 1.555979,0 c 0,0 -0.0018,0 -0.0024,0 l 0,0 3.539545,0 0,-2.1565 -3.433614,0 c -0.589483,0.019 -0.804297,-0.3799 -0.647996,-0.7928 l 0,0 c 0.385765,-0.121 0.69511,-0.271 0.926705,-0.4508 l 0,0 c 0.300903,-0.2343 0.511538,-0.5251 0.631822,-0.8728 l 0,0 c 0.120676,-0.3479 0.113658,-0.8424 -0.01983,-1.4846 l 0,0 c -0.173904,-0.428 -0.448345,-0.769 -0.822609,-1.0231 l 0,0 c -0.374776,-0.2539 -0.852422,-0.408 -1.434278,-0.4613 l 0,0 -4.7144324,0 z m 2.6179229,1.8055 1.8203415,0 c 0.0806,0 0.17991,0.045 0.298659,0.1328 l 0,0 c 0.118753,0.089 0.186417,0.2717 0.203312,0.549 l 0,0 c -0.007,0.2909 -0.06726,0.4726 -0.180923,0.5443 l 0,0 c -0.113566,0.072 -0.218778,0.1076 -0.315856,0.1076 l 0,0 -1.8255335,0 0,-1.3339 z"
       style="fill:url(#radialGradient2901);stroke:none"
       id="path2907" />
  </g>
</svg>
